<?xml version="1.0" encoding="utf-8"?>
<!-- Generator: Adobe Illustrator 22.0.1, SVG Export Plug-In . SVG Version: 6.00 Build 0)  -->
<svg version="1.1" id="Camada_1" xmlns="http://www.w3.org/2000/svg" xmlns:xlink="http://www.w3.org/1999/xlink" x="0px" y="0px"
	 viewBox="0 0 841.9 595.3" style="enable-background:new 0 0 841.9 595.3;" xml:space="preserve">
<style type="text/css">
	.st0{fill:#FFFFFF;stroke:#090405;stroke-miterlimit:10;}
	.st1{font-family:'MyriadPro-Regular';}
	.st2{font-size:40.8438px;}
	.st3{font-size:65.6215px;}
	.st4{font-size:14.1192px;}
	.st5{fill:none;stroke:#040304;stroke-miterlimit:10;}
	.st6{fill:#020203;stroke:#040304;stroke-miterlimit:10;}
</style>
<polygon class="st0" points="-243.9,56.4 -192.9,23.1 -136.8,56.4 -190.4,89.7 "/>
<text transform="matrix(1 0 0 1 172.101 55.4109)" class="st1 st2">Diagrama de Blocos - Cypher</text>
<path class="st0" d="M206.2,87.9h93.2c0,0,37.9,16.1,0,40.3h-93.2C206.2,128.1,172.8,110.9,206.2,87.9z"/>
<path class="st0" d="M206.2,527h93.2c0,0,37.9,16.1,0,40.3h-93.2C206.2,567.2,172.8,550,206.2,527z"/>
<polygon class="st0" points="189.9,166.7 189.9,213.3 317.6,213.3 317.6,150.1 "/>
<polygon class="st0" points="189.9,257.7 189.9,304.3 317.6,304.3 317.6,241 "/>
<rect x="189.9" y="337.1" class="st0" width="127.7" height="58.7"/>
<path class="st0" d="M211.8,428.6h88.6c0,0,17.1,10.3,17.3,28.8c0.2,21.2-17.3,34.5-17.3,34.5h-88.6l-21.9-31.6L211.8,428.6z"/>
<text transform="matrix(6.123234e-17 -1 1 6.123234e-17 147.6689 382.4844)" class="st1 st3">Cifrar</text>
<text transform="matrix(6.123234e-17 -1 1 6.123234e-17 730.1473 452.9717)" class="st1 st3">Descifrar</text>
<text transform="matrix(1 0 0 1 237.7503 112.1484)" class="st1 st4">Início</text>
<text transform="matrix(1 0 0 1 197.5534 185.8613)"><tspan x="0" y="0" class="st1 st4">Caixa de texto para</tspan><tspan x="0" y="16.9" class="st1 st4">inserir dados</tspan></text>
<text transform="matrix(1 0 0 1 192.8093 276.6891)"><tspan x="0" y="0" class="st1 st4">Caixa para permitir o</tspan><tspan x="0" y="16.9" class="st1 st4">nº de deslocamento</tspan></text>
<text transform="matrix(1 0 0 1 211.8628 362.1401)"><tspan x="0" y="0" class="st1 st4">Processa o</tspan><tspan x="0" y="16.9" class="st1 st4">deslocamento</tspan></text>
<text transform="matrix(1 0 0 1 211.3197 447.9713)"><tspan x="0" y="0" class="st1 st4">      Mostra</tspan><tspan x="0" y="16.9" class="st1 st4">o resultado do</tspan><tspan x="0" y="33.9" class="st1 st4">texto cifrado</tspan></text>
<text transform="matrix(1 0 0 1 242.9738 551.246)" class="st1 st4">Fim</text>
<path class="st0" d="M549.7,122.8h93.2c0,0,37.9,16.1,0,40.3h-93.2C549.7,163.1,516.3,145.8,549.7,122.8z"/>
<path class="st0" d="M549.7,474h93.2c0,0,37.9,16.1,0,40.3h-93.2C549.7,514.2,516.3,497,549.7,474z"/>
<polygon class="st0" points="533.5,208.7 533.5,255.3 661.2,255.3 661.2,192 "/>
<rect x="533.5" y="284.1" class="st0" width="127.7" height="58.7"/>
<path class="st0" d="M555.3,375.6h88.6c0,0,17.1,10.3,17.3,28.8c0.2,21.2-17.3,34.5-17.3,34.5h-88.6l-21.9-31.6L555.3,375.6z"/>
<text transform="matrix(1 0 0 1 581.2893 147.0877)" class="st1 st4">Início</text>
<text transform="matrix(1 0 0 1 541.0922 227.801)"><tspan x="0" y="0" class="st1 st4">Caixa de texto para</tspan><tspan x="0" y="16.9" class="st1 st4">inserir tx cifrado</tspan></text>
<text transform="matrix(1 0 0 1 554.9573 309.1401)"><tspan x="0" y="0" class="st1 st4">Processa o</tspan><tspan x="0" y="16.9" class="st1 st4">desciframento</tspan></text>
<text transform="matrix(1 0 0 1 549.7472 392.9713)"><tspan x="0" y="0" class="st1 st4">        Mostra</tspan><tspan x="0" y="16.9" class="st1 st4">o resultado do</tspan><tspan x="0" y="33.9" class="st1 st4">texto descifrado</tspan></text>
<text transform="matrix(1 0 0 1 586.5128 498.246)" class="st1 st4">Fim</text>
<g>
	<line class="st5" x1="251.7" y1="152.4" x2="251.7" y2="132.5"/>
	<polygon class="st6" points="248.5,146.4 256.9,146.4 251.8,152.8 	"/>
</g>
<g>
	<line class="st5" x1="251.7" y1="241.4" x2="251.7" y2="221.4"/>
	<polygon class="st6" points="248.5,235.3 256.9,235.3 251.8,241.7 	"/>
</g>
<g>
	<line class="st5" x1="251.8" y1="329.1" x2="251.8" y2="309.1"/>
	<polygon class="st6" points="248.6,323 257,323 251.9,329.5 	"/>
</g>
<g>
	<line class="st5" x1="251.8" y1="420.3" x2="251.8" y2="400.3"/>
	<polygon class="st6" points="248.6,414.2 257,414.2 251.9,420.6 	"/>
</g>
<g>
	<line class="st5" x1="251.8" y1="518.2" x2="251.8" y2="498.2"/>
	<polygon class="st6" points="248.6,512.1 257,512.1 251.9,518.6 	"/>
</g>
<g>
	<line class="st5" x1="596.3" y1="466.2" x2="596.3" y2="446.3"/>
	<polygon class="st6" points="593.1,460.1 601.5,460.1 596.4,466.6 	"/>
</g>
<g>
	<line class="st5" x1="595.3" y1="367.9" x2="595.3" y2="347.9"/>
	<polygon class="st6" points="592.1,361.8 600.5,361.8 595.4,368.2 	"/>
</g>
<g>
	<line class="st5" x1="594.3" y1="278.7" x2="594.3" y2="258.7"/>
	<polygon class="st6" points="591.1,272.6 599.5,272.6 594.4,279 	"/>
</g>
<g>
	<line class="st5" x1="593.3" y1="191.6" x2="593.3" y2="171.7"/>
	<polygon class="st6" points="590.1,185.5 598.5,185.5 593.4,192 	"/>
</g>
</svg>
